<svg width="24" height="24" viewBox="0 0 24 24" fill="none" xmlns="http://www.w3.org/2000/svg">
<path fill-rule="evenodd" clip-rule="evenodd" d="M12 11C11.4477 11 11 10.5523 11 10L11 3.00003C11 2.44775 11.4477 2.00003 12 2.00003C12.5523 2.00003 13 2.44775 13 3.00003V10C13 10.5523 12.5523 11 12 11Z" fill="#F0F0F0"/>
<path d="M11.2929 21.7071C11.6834 22.0977 12.3166 22.0977 12.7071 21.7071L19.7071 14.7071C19.9931 14.4211 20.0786 13.991 19.9238 13.6173C19.7691 13.2437 19.4044 13 19 13H4.99997C4.59551 13 4.23087 13.2437 4.07609 13.6173C3.92131 13.991 4.00686 14.4211 4.29286 14.7071L11.2929 21.7071Z" fill="#F0F0F0"/>
</svg>
